<?xml version="1.0" standalone="no"?>
<!DOCTYPE svg PUBLIC "-//W3C//DTD SVG 1.1//EN" "http://www.w3.org/Graphics/SVG/1.1/DTD/svg11.dtd" >
<svg xmlns="http://www.w3.org/2000/svg">
<metadata></metadata>
<defs>
<font id="your_iconsregular" horiz-adv-x="2048" >
<font-face units-per-em="2048" ascent="1638" descent="-410" />
<missing-glyph horiz-adv-x="500" />
<glyph unicode="&#xd;" />
<glyph unicode="!" d="M380 428h1240v1240h-1240v-1240zM504 552v992h992v-992h-992zM600 648h320v800h-320v-800zM1080 648h320v320h-320v-320zM1080 1128h320v320h-320v-320z" />
<glyph unicode="$" d="M380 428h1240v1240h-1240v-1240zM504 552v992h992v-992h-992zM556 612v172h168v-172h-168zM556 846v170h168v-170h-168zM556 1080v170h168v-170h-168zM556 1312v172h168v-172h-168zM796 612v172h168v-172h-168zM796 846v170h168v-170h-168zM796 1080v170h168v-170h-168z M796 1312v172h168v-172h-168zM1036 612v172h168v-172h-168zM1036 846v170h168v-170h-168zM1036 1080v170h168v-170h-168zM1036 1312v172h168v-172h-168zM1276 612v172h168v-172h-168zM1276 846v170h168v-170h-168zM1276 1080v170h168v-170h-168zM1276 1312v172h168v-172 h-168z" />
<glyph unicode="%" d="M128 934h184v-80q0 -132 94 -226t226 -94h160v-212l120 138l120 136l-120 138l-120 138v-178h-80q-100 0 -170 70t-70 170h1160v-194l120 136l120 138l-120 138l-120 138v-196h-640v80q0 100 70 170t170 70h80v-190l120 138l120 138l-120 136l-120 138v-200h-160 q-132 0 -226 -93t-94 -227v-160h-704v-160z" />
<glyph unicode="&#x26;" d="M316 344h184h182l-90 80l-8 6v682h-48h-86h-26h-60l60 -74v-600l-16 -14zM364 1312q0 -14 3 -27t9 -25t14 -23t19 -19t22 -14t25 -9t28 -3q50 0 85 35t35 85t-35 85t-85 35t-85 -35t-35 -85zM724 492h800h64h96v1260h-96h-64h-800v-160h800v-940h-800v-160zM724 792h640 v160h-640v-160zM724 1052h640v160h-640v-160zM724 1312h400v160h-400v-160z" />
<glyph unicode="*" d="M280 328h388v130h464v-130h388v388h-388v-134h-464v134h-134v464h134v388h-388v-388h130v-464h-130v-388zM380 428v186h186v-186h-186zM380 1280v186h186v-186h-186zM808 1768l440 -188l472 -190l-440 -62l-64 -472l-188 440zM1232 428v186h186v-186h-186z" />
<glyph unicode="+" d="M200 968h720v-720h160v720h720v160h-720v720h-160v-720h-720v-160z" />
<glyph unicode="," d="M320 1208q0 -216 152 -368t368 -152q176 0 316 108l250 -250l88 88l-248 248q114 142 114 326q0 216 -152 368t-368 152t-368 -152t-152 -368zM412 1208q0 178 125 303t303 125t303 -125t125 -303t-125 -303t-303 -125t-303 125t-125 303z" />
<glyph unicode="." d="M490 318h880h140v1100q-230 230 -340 360h-680v-140v-1180v-140zM630 458v1180h540v-220h200v-960h-740z" />
<glyph unicode="/" d="M490 318h880h140v1100q-230 230 -340 360h-680v-140v-1180v-140zM630 458v1180h540v-220h200v-960h-740zM730 698h560v160h-560v-160zM730 938h560v160h-560v-160zM730 1178h560v160h-560v-160zM730 1418h320v160h-320v-160z" />
<glyph unicode="0" d="M380 428h1240v1240h-1240v-1240zM504 552v992h992v-992h-992zM600 648h800v800h-800v-800z" />
<glyph unicode="1" d="M654 648v400v400l346 -200l346 -200l-346 -200z" />
<glyph unicode="2" d="M294 648h160v800h-160v-800zM508 648l346 200l160 92v-292l346 200l346 200l-346 200l-346 200v-292l-160 92l-346 200v-400v-400z" />
<glyph unicode="3" d="M294 1048l346 -200l346 -200v292l160 -92l346 -200v400v400l-346 -200l-160 -92v292l-346 -200zM1546 648h160v800h-160v-800z" />
<glyph unicode="4" d="M340 1068l120 -138l120 -138v188h342v-352h-196l138 -120l138 -120l136 120l138 120h-194v352h338v-188l120 138l120 138l-120 138l-120 138v-204h-338v328h194l-138 120l-136 120l-138 -120l-138 -120h196v-328h-342v204l-120 -138z" />
<glyph unicode="5" d="M550 904l12 -182l12 -182l182 -12l182 -12l-136 136l248 250l240 -238l-134 -134l182 14l182 12l14 182l12 182l-144 -144l-238 238l232 232l136 -136l-12 182l-12 182l-182 12l-182 12l138 -138l-232 -232l-242 242l144 144l-182 -12l-182 -14l-12 -182l-14 -182 l134 134l242 -244l-250 -248z" />
<glyph unicode="6" d="M280 1046q0 -82 18 -162l152 58q-10 52 -10 104h-160zM314 1708l24 -180l22 -182h184l182 -2l-116 104q162 158 390 158q232 0 396 -164t164 -396q0 -40 -6 -78l152 -60q14 68 14 138q0 196 -96 362t-262 262t-362 96q-148 0 -280 -56t-230 -156zM352 734 q60 -128 166 -222l84 140q-62 62 -100 140zM648 418q132 -74 282 -88l-2 160q-104 14 -198 66zM760 1048q0 -100 70 -170t170 -70t170 70t70 170t-70 170t-170 70t-170 -70t-70 -170zM1088 494l2 -162q148 18 274 94l-80 138q-92 -54 -196 -70zM1410 664l84 -142 q106 100 166 234l-150 58q-38 -82 -100 -150z" />
<glyph unicode="7" d="M170 1168q0 -228 161 -389t389 -161q176 0 320 102l388 -388l114 112l-388 388q116 148 116 336q0 228 -161 389t-389 161t-389 -161t-161 -389zM320 1168q0 166 117 283t283 117t283 -117t117 -283t-117 -283t-283 -117t-283 117t-117 283zM1366 1182h474v88h-474v-88z M1366 1548h192v-194h88v194h194v88h-194v194h-88v-194h-192v-88z" />
<glyph unicode="8" d="M280 878v132h262v-132h-262zM412 458l184 186l94 -92l-186 -186zM460 1430l94 92l184 -186l-92 -92zM624 824q36 -198 201 -311t361 -76t310 201t76 362q-24 128 -107 226t-204 141t-250 19t-227 -108t-141 -205t-19 -249zM744 846q-26 146 58 269t230 151 q166 30 294 -76l-486 -530q-36 38 -61 85t-35 101zM1000 1468v262h130v-262h-130zM1442 1376l186 184l92 -92l-186 -186z" />
<glyph unicode="9" d="M380 428h1240v1240h-1240v-1240zM504 552v992h992v-992h-992z" />
<glyph unicode=";" d="M440 406h1120v692h-834v174q14 102 92 171t182 69q68 0 128 -32t99 -87t47 -121h196q-16 176 -151 297t-319 121q-92 0 -175 -33t-145 -88t-102 -133t-48 -164h2v-174h-92v-692zM840 752q0 66 47 113t113 47t113 -47t47 -113t-47 -113t-113 -47q-44 0 -81 21t-58 58 t-21 81z" />
<glyph unicode="=" d="M440 386h1120v692h-92v214h2q-16 182 -158 304q-134 114 -312 114q-92 0 -175 -33t-145 -88t-102 -133t-48 -164h2v-214h-92v-692zM726 1078v214q0 4 2 6q8 60 42 110q0 2 2 4q40 56 100 88q4 2 6 4q58 28 122 28t122 -28q2 -2 6 -4q38 -20 69 -51t51 -72t26 -85v-214 h-548zM840 732q0 22 6 43t16 38t25 32t32 25t38 16t43 6q66 0 113 -47t47 -113t-47 -113t-113 -47t-113 47t-47 113z" />
<glyph unicode="^" d="M200 1048q0 -332 234 -566t566 -234t566 234t234 566t-234 566t-566 234t-566 -234t-234 -566zM364 968h198q14 -268 104 -466q-60 38 -112 88t-90 109t-64 127t-36 142zM364 1128q20 146 99 268t203 198q-90 -198 -104 -466h-198zM722 968h556q-8 -186 -49 -338 t-107 -210q-60 -12 -122 -12t-122 12q-26 24 -50 65t-42 94t-31 116t-22 132t-11 141zM722 1128q8 186 49 338t107 210q60 12 122 12t122 -12q32 -28 61 -85t48 -130t31 -158t16 -175h-556zM1334 502q90 198 104 466h198q-20 -146 -99 -268t-203 -198zM1334 1594 q124 -76 203 -198t99 -268h-198q-14 268 -104 466z" />
<glyph unicode="_" d="M160 1346q-14 -78 6 -158t73 -156t115 -144t153 -141t166 -129t173 -128t154 -118q56 46 154 118t173 128t166 129t153 141t115 144t73 156t6 158q-24 136 -113 230t-206 129t-258 5t-263 -128q-176 142 -380 142q-82 0 -159 -26t-138 -74t-104 -119t-59 -159zM322 1334 q34 122 117 179t193 57q112 0 217 -50t145 -120v-840q-44 36 -141 109t-164 125t-151 129t-132 139t-74 135t-10 137z" />
<glyph unicode="a" d="M316 1012v160h160v-160h-160zM316 1252v160h160v-160h-160zM316 1492v160h160v-160h-160zM652 1012h2h162h108l-54 54l26 26l78 80h-158h-164v-160zM652 1252v160h864v-160h-864zM652 1492v160h864v-160h-864zM960 558l112 -114l612 612l-112 112zM960 1056l612 -612 l112 114l-612 610zM1162 1172h158h158l-78 -80l-80 -80l-78 80z" />
<glyph unicode="b" d="M560 604h880v100h-2l-218 148l-120 84v56q46 36 73 97t27 135q0 110 -60 189t-144 79q-42 0 -80 -21t-66 -57t-44 -86t-16 -104q0 -50 13 -94t35 -80t52 -58v-66l-108 -74l-218 -148h-4v-100zM564 600h880v100h-2l-218 150l-120 82v56q46 36 73 98t27 134q0 74 -27 136 t-75 98t-104 36q-84 0 -144 -79t-60 -191q0 -72 27 -134t73 -98v-64l-108 -74l-218 -150h-4v-100zM1284 1456h474v88h-474v-88zM1478 1264h88v474h-88v-474z" />
<glyph unicode="c" d="M280 1048l140 -132l112 -106q30 -34 68 -63t84 -51t96 -39t106 -25t114 -8q88 0 170 20t151 55t121 85l138 132l140 132l-140 132l-118 110q-78 84 -200 133t-262 49q-144 0 -267 -50t-201 -136l-112 -106zM688 1048q0 64 25 121t67 99t99 67t121 25t121 -25t99 -67 t67 -99t25 -121q0 -128 -92 -220t-220 -92t-220 92t-92 220zM858 1048q0 -38 19 -71t52 -52t71 -19t71 19t52 52t19 71t-19 71t-52 52t-71 19q-58 0 -100 -42t-42 -100z" />
<glyph unicode="d" d="M504 1058l278 -266l116 -112l598 624l-116 112l-488 -510l-276 266z" />
<glyph unicode="e" d="M692 848h276h274l-138 120l-136 120l-138 -120z" />
<glyph unicode="f" d="M638 798l112 -112l612 612l-112 112zM638 1298l612 -612l112 112l-612 612z" />
<glyph unicode="g" d="M390 948h424v-420l-224 220zM390 948h160v4v68v368h702v-700h-440v-160h440h158v1020h-158h-862v-156v-4v-368v-68v-4zM646 1648h864v160h-864v-160zM1510 784h160v1024h-160v-1024z" />
<glyph unicode="h" d="M500 1018q0 194 138 332t332 138t332 -138t138 -332t-138 -332t-332 -138t-332 138t-138 332z" />
<glyph unicode="i" d="M408 388v384h160v-384h-160zM568 388v160h864v-160h-864zM724 1468h276h274l-136 120l-138 120l-138 -120zM920 620v848h160v-848h-160zM1432 388v384h160v-384h-160z" />
<glyph unicode="j" d="M530 1048q0 -188 138 -321t332 -133t332 133t138 321t-138 321t-332 133t-332 -133t-138 -321zM724 1048q0 114 81 195t195 81t195 -81t81 -195t-81 -195t-195 -81t-195 81t-81 195z" />
<glyph unicode="k" d="M430 1748l560 -240l600 -240l-560 -80l-80 -600l-240 560z" />
<glyph unicode="l" d="M284 1330l546 12l180 518l180 -518l546 -10l-434 -330l158 -524l-450 312l-448 -314l158 524z" />
<glyph unicode="m" d="M358 412h160h864v160v360h-160v-360h-704v710h320v160h-480v-160v-870zM762 806l116 60l114 62l-54 54l-54 56l-62 -116zM918 1074l112 -114l612 612l-112 112z" />
<glyph unicode="n" d="M550 604h880v100h-2l-218 150l-120 82v56q46 36 73 98t27 134q0 112 -60 191t-145 79t-145 -79t-60 -191q0 -72 27 -134t73 -98v-64l-108 -74l-218 -150h-4v-100zM1260 1464v80h480v-80h-480z" />
<glyph unicode="o" d="M408 388v384h160v-384h-160zM568 388v160h864v-160h-864zM724 860h276h274l-136 -120l-138 -120l-138 120zM920 860h160v848h-160v-848zM1432 388v384h160v-384h-160z" />
<glyph unicode="p" d="M384 688v160h160v-160h-160zM384 928v160h160v-160h-160zM384 1168v160h160v-160h-160zM720 688v160h864v-160h-864zM720 928v160h864v-160h-864zM720 1168v160h864v-160h-864z" />
<glyph unicode="q" d="M534 648v160h866v-160h-866zM534 888v160h866v-160h-866zM534 1128v160h866v-160h-866z" />
<glyph unicode="r" d="M710 768h274h276l-138 -120l-138 -120l-136 120zM714 848h276h274l-136 120l-138 120l-138 -120z" />
<glyph unicode="s" d="M376 1016v160h160v-160h-160zM376 1256v160h160v-160h-160zM376 1496v160h160v-160h-160zM632 818l110 114l278 -266l-110 -114zM712 1016v160h550v-160h-550zM712 1256v160h864v-160h-864zM712 1496v160h864v-160h-864zM910 552l598 624l116 -112l-598 -624zM1102 1176 h158h158l-78 -80l-80 -80l-80 80z" />
<glyph unicode="t" d="M8 1088h276h274l-138 -120l-136 -120l-138 120zM634 648v160h866v-160h-866zM634 888v160h866v-160h-866zM634 1128v160h866v-160h-866z" />
<glyph unicode="u" d="M710 768h274h276l-138 -120l-138 -120l-136 120zM714 848h276h274l-136 120l-138 120l-138 -120zM1350 488v160h864v-160h-864zM1350 728v160h864v-160h-864zM1350 968v160h864v-160h-864z" />
<glyph unicode="v" d="M560 604h880v100h-2l-218 148l-120 84v56q46 36 73 97t27 135q0 110 -60 189t-144 79q-42 0 -80 -21t-66 -57t-44 -86t-16 -104q0 -50 13 -94t35 -80t52 -58v-66l-108 -74l-218 -148h-4v-100z" />
<glyph unicode="w" d="M692 1088h276h274l-138 -120l-136 -120l-138 120z" />
<glyph unicode="x" d="M720 772l120 138l120 138l-120 138l-120 138v-276v-276zM1120 368h160v1352h-160v-1352z" />
<glyph unicode="y" d="M8 848h276h274l-138 120l-136 120l-138 -120zM634 648h866v160h-866v-160zM634 888h866v160h-866v-160zM634 1128h866v160h-866v-160z" />
<glyph unicode="z" d="M284 1330l436 -330l-158 -524l448 314l450 -312l-158 524l434 330l-546 10l-180 518l-180 -518zM660 1194l264 6l86 250l86 -250l264 -4l-210 -160l78 -254l-218 152l-216 -152l76 254z" />
<glyph unicode="&#xa3;" d="M380 428h1240v1240h-1240v-1240zM504 552v992h992v-992h-992zM600 648h202v200h-202v-200zM600 948h202v200h-202v-200zM600 1248h202v200h-202v-200zM902 648h200v200h-200v-200zM902 948h200v200h-200v-200zM902 1248h200v200h-200v-200zM1202 648h198v200h-198v-200z M1202 948h198v200h-198v-200zM1202 1248h198v200h-198v-200z" />
<glyph unicode="&#x2000;" horiz-adv-x="1024" />
<glyph unicode="&#x2001;" />
<glyph unicode="&#x2002;" horiz-adv-x="1024" />
<glyph unicode="&#x2003;" />
<glyph unicode="&#x2004;" horiz-adv-x="682" />
<glyph unicode="&#x2005;" horiz-adv-x="512" />
<glyph unicode="&#x2006;" horiz-adv-x="341" />
<glyph unicode="&#x2007;" horiz-adv-x="341" />
<glyph unicode="&#x2008;" horiz-adv-x="256" />
<glyph unicode="&#x2009;" horiz-adv-x="409" />
<glyph unicode="&#x200a;" horiz-adv-x="113" />
<glyph unicode="&#x202f;" horiz-adv-x="409" />
<glyph unicode="&#x205f;" horiz-adv-x="512" />
<glyph unicode="&#xe000;" horiz-adv-x="1720" d="M0 0v1720h1720v-1720h-1720z" />
</font>
</defs>
</svg>
